<svg width="103" height="40" viewBox="0 0 103 40" fill="none" xmlns="http://www.w3.org/2000/svg">
<path d="M8.52637 3.2861C8.52637 16.0327 16.8746 26.863 28.3906 30.6015V39.4629C26.4685 38.9937 24.5818 38.373 22.7412 37.5966C18.311 35.7219 14.33 33.0377 10.9014 29.622C7.4859 26.2065 4.8027 22.2259 2.92773 17.7832C0.988832 13.1862 0 8.30679 0 3.2861H8.52637Z" fill="#102DB9"/>
<path d="M28.3904 8.86328C16.8875 12.6094 8.55169 23.4338 8.55151 36.1709H0.0251465C0.0252005 31.1504 1.01403 26.2709 2.95288 21.6738C4.82761 17.2441 7.51098 13.2632 10.9265 9.83496C14.3421 6.41933 18.3235 3.73606 22.7664 1.86133C24.599 1.08839 26.4769 0.468501 28.3904 0V8.86328Z" fill="#1A3EEC"/>
<path d="M43.9323 11.2768H49.9225L44.522 17.4635L50.0312 26.3175H44.3254L41.1991 20.8083L38.5758 22.9507V26.3175H33.7441V11.2768H38.5758V17.704L43.9323 11.2768Z" fill="black"/>
<path d="M59.1245 11.0145C61.3542 11.0145 63.1179 11.5723 64.4151 12.6875C65.7124 13.802 66.361 15.3941 66.361 17.4636H61.7478C61.7478 16.589 61.5181 15.8967 61.0588 15.3871C60.6001 14.877 59.9483 14.6218 59.1037 14.6218C58.127 14.6218 57.409 14.9279 56.9497 15.5398C56.4901 16.152 56.2606 17.0043 56.2606 18.0972V19.4962C56.2606 20.5755 56.4901 21.4247 56.9497 22.0444C57.409 22.6635 58.1123 22.9728 59.0597 22.9728C59.9922 22.9728 60.6992 22.7323 61.1802 22.2513C61.6611 21.7704 61.9016 21.0926 61.9016 20.2176H66.361C66.361 22.2733 65.7303 23.8477 64.4695 24.9406C63.2092 26.0338 61.4276 26.5801 59.1245 26.5801C56.5592 26.5801 54.6171 25.9242 53.2985 24.6123C51.9796 23.3006 51.3203 21.362 51.3203 18.7967C51.3203 16.2317 51.9796 14.2934 53.2985 12.9823C54.6171 11.6706 56.5592 11.0145 59.1245 11.0145Z" fill="black"/>
<path d="M68.8088 26.3174V10.4674H73.1595V26.3174H68.8088Z" fill="black"/>
<path d="M84.3088 26.3175L84.0244 24.5682C83.5726 25.1949 82.9786 25.6871 82.2427 26.0447C81.5065 26.4014 80.7304 26.58 79.9142 26.58C78.573 26.58 77.5671 26.2086 76.8966 25.4654C76.2266 24.7217 75.8918 23.6502 75.8918 22.2513V14.7743H80.2425V21.7264C80.2425 22.2221 80.3697 22.6195 80.6241 22.9184C80.879 23.2167 81.2403 23.3658 81.7074 23.3658C82.2462 23.3658 82.6832 23.1912 83.0185 22.8421C83.3538 22.4923 83.5214 22.0622 83.5214 21.5518V14.7743H87.8721V26.3175H84.3088Z" fill="black"/>
<path d="M94.8883 15.8459C95.719 14.9565 96.7977 14.5117 98.1244 14.5117C99.6835 14.5117 100.886 15.0181 101.732 16.0309C102.577 17.0437 103 18.5415 103 20.5238C103 22.5211 102.577 24.0299 101.732 25.0502C100.886 26.0699 99.6835 26.5798 98.1244 26.5798C96.5211 26.5798 95.2967 25.9459 94.4512 24.6779L94.0801 26.3174H90.5376V10.4674H94.8883V15.8459ZM96.7694 17.7258C96.128 17.7258 95.647 17.9556 95.3265 18.4149C95.0056 18.8736 94.8455 19.467 94.8455 20.1954V20.9169C94.8455 21.6461 95.0056 22.2366 95.3265 22.6881C95.647 23.1399 96.128 23.3657 96.7694 23.3657C98.0227 23.3657 98.6493 22.6228 98.6493 21.1365V19.9769C98.6493 18.4762 98.0227 17.7258 96.7694 17.7258Z" fill="black"/>
</svg>
